<?xml version="1.0" encoding="UTF-8" standalone="no"?>
<!DOCTYPE svg PUBLIC "-//W3C//DTD SVG 1.1//EN" "http://www.w3.org/Graphics/SVG/1.1/DTD/svg11.dtd">
<svg width="100%" height="100%" viewBox="0 0 128 128" version="1.1" xmlns="http://www.w3.org/2000/svg" xmlns:xlink="http://www.w3.org/1999/xlink" xml:space="preserve" xmlns:serif="http://www.serif.com/" style="fill-rule:evenodd;clip-rule:evenodd;stroke-linejoin:round;stroke-miterlimit:2;">
    <g transform="matrix(10.4707,0,0,10.4707,-190.358,-345.757)">
        <path d="M25.858,36.812L25.858,35.36L19.726,35.36L19.726,43.76L21.49,43.76L21.49,40.364L25.378,40.364L25.378,38.912L21.49,38.912L21.49,36.812L25.858,36.812Z" style="fill-rule:nonzero;"/>
        <path d="M27.85,36.404C28.45,36.404 28.858,36.068 28.858,35.456C28.858,34.844 28.45,34.508 27.85,34.508C27.25,34.508 26.842,34.844 26.842,35.456C26.842,36.068 27.25,36.404 27.85,36.404ZM26.974,43.76L28.69,43.76L28.69,37.28L26.974,37.28L26.974,43.76Z" style="fill-rule:nonzero;"/>
    </g>
</svg>
