<?xml version="1.0" encoding="UTF-8" standalone="no"?>
<!DOCTYPE svg PUBLIC "-//W3C//DTD SVG 1.1//EN" "http://www.w3.org/Graphics/SVG/1.1/DTD/svg11.dtd">
<svg width="100%" height="100%" viewBox="0 0 128 128" version="1.1" xmlns="http://www.w3.org/2000/svg" xmlns:xlink="http://www.w3.org/1999/xlink" xml:space="preserve" xmlns:serif="http://www.serif.com/" style="fill-rule:evenodd;clip-rule:evenodd;stroke-linejoin:round;stroke-miterlimit:2;">
    <g transform="matrix(12.2675,0,0,12.2675,-230.086,-620.553)">
        <path d="M19.761,60.218L19.761,51.71L25.137,51.71L25.137,53.282L21.417,53.282L21.417,55.382L24.729,55.382L24.729,56.906L21.429,56.906L21.429,60.218L19.761,60.218Z" style="fill-rule:nonzero;"/>
        <path d="M26.409,60.218L26.409,54.314L28.005,54.314L28.005,60.218L26.409,60.218ZM26.217,52.382C26.217,52.102 26.313,51.866 26.505,51.674C26.697,51.482 26.929,51.386 27.201,51.386C27.481,51.386 27.715,51.482 27.903,51.674C28.091,51.866 28.185,52.102 28.185,52.382C28.185,52.646 28.091,52.874 27.903,53.066C27.715,53.258 27.481,53.354 27.201,53.354C26.929,53.354 26.697,53.258 26.505,53.066C26.313,52.874 26.217,52.646 26.217,52.382Z" style="fill-rule:nonzero;"/>
    </g>
</svg>
